<?xml version="1.0" encoding="UTF-8" standalone="no"?>
<svg
   xmlns:dc="http://purl.org/dc/elements/1.1/"
   xmlns:cc="http://creativecommons.org/ns#"
   xmlns:rdf="http://www.w3.org/1999/02/22-rdf-syntax-ns#"
   xmlns:svg="http://www.w3.org/2000/svg"
   xmlns="http://www.w3.org/2000/svg"
   xmlns:sodipodi="http://sodipodi.sourceforge.net/DTD/sodipodi-0.dtd"
   xmlns:inkscape="http://www.inkscape.org/namespaces/inkscape"
   inkscape:version="1.0 (6e3e5246a0, 2020-05-07)"
   sodipodi:docname="logo-vertical.svg"
   id="svg219"
   version="1.1"
   xml:space="preserve"
   style="enable-background:new 0 0 98.9 103.2;"
   viewBox="0 0 98.9 103.2"
   height="103.2px"
   width="98.9px"
   y="0px"
   x="0px"><metadata
   id="metadata225"><rdf:RDF><cc:Work
       rdf:about=""><dc:format>image/svg+xml</dc:format><dc:type
         rdf:resource="http://purl.org/dc/dcmitype/StillImage" /></cc:Work></rdf:RDF></metadata><defs
   id="defs223" /><sodipodi:namedview
   inkscape:current-layer="svg219"
   inkscape:window-maximized="1"
   inkscape:window-y="27"
   inkscape:window-x="0"
   inkscape:cy="46.855171"
   inkscape:cx="60.137023"
   inkscape:zoom="8.4302328"
   showgrid="false"
   id="namedview221"
   inkscape:window-height="1016"
   inkscape:window-width="1862"
   inkscape:pageshadow="2"
   inkscape:pageopacity="0"
   guidetolerance="10"
   gridtolerance="10"
   objecttolerance="10"
   borderopacity="1"
   bordercolor="#666666"
   pagecolor="#ffffff" />
<style
   id="style193"
   type="text/css">
	.logo-vertical-0{fill:#377DFF;}
	.logo-vertical-1{fill:#3F7DE0;}
	.logo-vertical-2{fill:#00DFFC;}
	.logo-vertical-3{fill:#FFFFFF;}
</style>

<g
   id="g217">
	<path
   id="path207"
   d="M50,41L50,41c-9.9,0-18-8-18-18v0c0-9.9,8-18,18-18h11.3C65,5,68,8,68,11.7V23C68,32.9,59.9,41,50,41z"
   opacity=".65"
   class="logo-vertical-1" />
	<path
   id="path209"
   d="M55,35.9L55,35.9c-9.9,0-18-8-18-18v0c0-9.9,8-18,18-18l11.3,0C70,0,73,3,73,6.6V18C73,27.9,65,35.9,55,35.9z"
   opacity=".5"
   class="logo-vertical-2" />
	<path
   id="path211"
   d="M45,46L45,46c-9.9,0-18-8-18-18v0c0-9.9,8-18,18-18h11.3c3.7,0,6.6,3,6.6,6.6V28C62.9,38,54.9,46,45,46z"
   opacity=".7"
   class="logo-vertical-0" />
	<g
   id="g215">
		
	</g>
</g>
<path
   style="fill:#ffffff;stroke-width:0.011685"
   d="m 54.893166,17.921387 q 0.514142,0.607623 0.140221,1.729385 -0.373921,1.121764 -1.261984,2.009828 l -1.881292,1.881291 1.869607,8.132782 q 0.05842,0.222017 -0.140221,0.385607 l -1.495685,1.121763 q -0.08179,0.07011 -0.222015,0.07011 -0.04674,0 -0.0818,-0.01168 -0.175275,-0.03506 -0.245385,-0.186961 l -3.260123,-5.935997 -3.026425,3.026422 0.619306,2.266898 q 0.05843,0.198645 -0.09348,0.362236 l -1.121763,1.121764 Q 44.586961,34 44.42337,34 H 44.4 q -0.175275,-0.02337 -0.280441,-0.151905 l -2.208471,-2.944629 -2.944629,-2.208473 q -0.128536,-0.08179 -0.151906,-0.268755 -0.01168,-0.151906 0.105166,-0.292127 l 1.121763,-1.133446 q 0.105165,-0.105165 0.268756,-0.105165 0.07011,0 0.09348,0.01168 l 2.266897,0.619306 3.026424,-3.026424 -5.935998,-3.260125 q -0.163591,-0.09348 -0.198646,-0.280441 -0.02337,-0.186961 0.105165,-0.315497 l 1.495685,-1.495684 q 0.163591,-0.151906 0.350552,-0.09348 l 7.770548,1.857921 1.869605,-1.869607 q 0.888063,-0.888063 2.009827,-1.261983 1.121763,-0.373921 1.729385,0.14022 z"
   id="path75" /><text
   xml:space="preserve"
   style="font-style:normal;font-variant:normal;font-weight:800;font-stretch:normal;font-size:32px;line-height:1.25;font-family:'Open Sans';-inkscape-font-specification:'Open Sans Ultra-Bold';letter-spacing:-2px;display:inline;fill:#377dff;fill-opacity:1;stroke:none"
   x="-1.8354527"
   y="89.364052"
   id="text106"><tspan
     style="font-size:32px"
     dx="0"
     sodipodi:role="line"
     id="tspan104"
     x="-1.8354527"
     y="89.364052">MyLog</tspan></text></svg>
