<?xml version="1.0" encoding="UTF-8" standalone="no"?>
<svg
   xmlns:dc="http://purl.org/dc/elements/1.1/"
   xmlns:cc="http://creativecommons.org/ns#"
   xmlns:rdf="http://www.w3.org/1999/02/22-rdf-syntax-ns#"
   xmlns:svg="http://www.w3.org/2000/svg"
   xmlns="http://www.w3.org/2000/svg"
   xmlns:sodipodi="http://sodipodi.sourceforge.net/DTD/sodipodi-0.dtd"
   xmlns:inkscape="http://www.inkscape.org/namespaces/inkscape"
   inkscape:version="1.0 (6e3e5246a0, 2020-05-07)"
   sodipodi:docname="logo-short.svg"
   id="svg222"
   version="1.1"
   xml:space="preserve"
   style="enable-background:new 0 0 46 46;"
   viewBox="0 0 46 46"
   height="46px"
   width="46px"
   y="0px"
   x="0px"><metadata
   id="metadata228"><rdf:RDF><cc:Work
       rdf:about=""><dc:format>image/svg+xml</dc:format><dc:type
         rdf:resource="http://purl.org/dc/dcmitype/StillImage" /></cc:Work></rdf:RDF></metadata><defs
   id="defs226" /><sodipodi:namedview
   inkscape:current-layer="svg222"
   inkscape:window-maximized="1"
   inkscape:window-y="27"
   inkscape:window-x="0"
   inkscape:cy="23.079228"
   inkscape:cx="19.504429"
   inkscape:zoom="9.75"
   showgrid="false"
   id="namedview224"
   inkscape:window-height="1016"
   inkscape:window-width="1862"
   inkscape:pageshadow="2"
   inkscape:pageopacity="0"
   guidetolerance="10"
   gridtolerance="10"
   objecttolerance="10"
   borderopacity="1"
   bordercolor="#666666"
   pagecolor="#ffffff" />
<style
   id="style210"
   type="text/css">
	.logo-short-0{fill:#3F7DE0;}
	.logo-short-1{fill:#00DFFC;}
	.logo-short-2{fill:#377DFF;}
	.logo-short-3{fill:#FFFFFF;}
</style>
<path
   id="path212"
   d="M23,41L23,41c-9.9,0-18-8-18-18v0c0-9.9,8-18,18-18h11.3C38,5,41,8,41,11.7V23C41,32.9,32.9,41,23,41z"
   opacity=".65"
   class="logo-short-0" />
<path
   id="path214"
   d="M28,35.9L28,35.9c-9.9,0-18-8-18-18v0c0-9.9,8-18,18-18l11.3,0C43,0,46,3,46,6.6V18C46,27.9,38,35.9,28,35.9z"
   opacity=".5"
   class="logo-short-1" />
<path
   id="path216"
   d="M18,46L18,46C8,46,0,38,0,28v0c0-9.9,8-18,18-18h11.3c3.7,0,6.6,3,6.6,6.6V28C35.9,38,27.9,46,18,46z"
   opacity=".7"
   class="logo-short-2" />

<path
   style="fill:#ffffff;stroke-width:0.011685"
   d="m 28.565018,17.378133 q 0.514142,0.607623 0.140221,1.729385 -0.373921,1.121764 -1.261984,2.009828 l -1.881292,1.881291 1.869607,8.132783 q 0.05842,0.222017 -0.140221,0.385607 l -1.495685,1.121763 q -0.08179,0.07011 -0.222015,0.07011 -0.04674,0 -0.0818,-0.01168 -0.175275,-0.03506 -0.245385,-0.186961 l -3.260124,-5.935998 -3.026425,3.026423 0.619306,2.266898 q 0.05843,0.198645 -0.09348,0.362236 l -1.121763,1.121764 q -0.105166,0.105165 -0.268757,0.105165 h -0.02337 Q 17.896576,33.433377 17.79141,33.304842 L 15.582939,30.360213 12.63831,28.15174 q -0.128536,-0.08179 -0.151906,-0.268755 -0.01168,-0.151906 0.105166,-0.292127 l 1.121763,-1.133447 q 0.105165,-0.105165 0.268756,-0.105165 0.07011,0 0.09348,0.01168 l 2.266897,0.619306 3.026424,-3.026424 -5.935998,-3.260125 q -0.163591,-0.09348 -0.198646,-0.280441 -0.02337,-0.186961 0.105165,-0.315497 l 1.495685,-1.495684 q 0.163591,-0.151906 0.350552,-0.09348 l 7.770549,1.857921 1.869605,-1.869607 q 0.888063,-0.888063 2.009827,-1.261983 1.121763,-0.373921 1.729385,0.14022 z"
   id="path75" /></svg>
