<?xml version="1.0" encoding="UTF-8" standalone="no"?>
<svg
   xmlns:dc="http://purl.org/dc/elements/1.1/"
   xmlns:cc="http://creativecommons.org/ns#"
   xmlns:rdf="http://www.w3.org/1999/02/22-rdf-syntax-ns#"
   xmlns:svg="http://www.w3.org/2000/svg"
   xmlns="http://www.w3.org/2000/svg"
   xmlns:sodipodi="http://sodipodi.sourceforge.net/DTD/sodipodi-0.dtd"
   xmlns:inkscape="http://www.inkscape.org/namespaces/inkscape"
   version="1.1"
   id="Layer_1"
   x="0px"
   y="0px"
   viewBox="0 0 190 46.1"
   xml:space="preserve"
   sodipodi:docname="logo.svg"
   inkscape:version="1.0 (6e3e5246a0, 2020-05-07)"
   width="190"
   height="46.099998"><metadata
   id="metadata27"><rdf:RDF><cc:Work
       rdf:about=""><dc:format>image/svg+xml</dc:format><dc:type
         rdf:resource="http://purl.org/dc/dcmitype/StillImage" /><dc:title></dc:title></cc:Work></rdf:RDF></metadata><defs
   id="defs25" /><sodipodi:namedview
   inkscape:document-rotation="0"
   pagecolor="#ffffff"
   bordercolor="#666666"
   borderopacity="1"
   objecttolerance="10"
   gridtolerance="10"
   guidetolerance="10"
   inkscape:pageopacity="0"
   inkscape:pageshadow="2"
   inkscape:window-width="1862"
   inkscape:window-height="1016"
   id="namedview23"
   showgrid="false"
   inkscape:zoom="2.8119935"
   inkscape:cx="187.64819"
   inkscape:cy="-3.1753584"
   inkscape:window-x="0"
   inkscape:window-y="27"
   inkscape:window-maximized="1"
   inkscape:current-layer="layer1" />
<style
   type="text/css"
   id="style2">
	.st0{fill:#377DFF;}
	.st1{opacity:0.65;fill:#3F7DE0;enable-background:new    ;}
	.st2{opacity:0.5;fill:#00DFFC;enable-background:new    ;}
	.st3{opacity:0.7;fill:#3F7DE0;enable-background:new    ;}
	.st4{fill:#FFFFFF;}
</style>





<path
   class="st1"
   d="m 23,41.1 v 0 c -9.9,0 -18,-8 -18,-18 v 0 c 0,-9.9 8,-18 18,-18 h 11.3 c 3.7,0 6.6,3 6.6,6.6 v 11.4 c 0.1,9.9 -8,18 -17.9,18 z"
   id="path14" />
<path
   class="st2"
   d="m 28,36 v 0 C 18.1,36 10,28 10,18 v 0 C 10,8.1 18,0 28,0 H 39.3 C 43,0.1 46,3.1 46,6.7 V 18.1 C 46,28 38,36 28,36 Z"
   id="path16" />
<path
   class="st3"
   d="m 18,46.1 v 0 c -10,0 -18,-8 -18,-18 v 0 c 0,-9.9 8,-18 18,-18 h 11.3 c 3.7,0 6.6,3 6.6,6.6 v 11.4 c 0,10 -8,18 -17.9,18 z"
   id="path18" />

<path
   id="path75"
   d="m 29.659094,17.05837 q 0.514142,0.607623 0.140221,1.729385 -0.373921,1.121764 -1.261984,2.009828 l -1.881292,1.881291 1.869607,8.132784 q 0.05842,0.222017 -0.140221,0.385607 l -1.495685,1.121763 q -0.08179,0.07011 -0.222015,0.07011 -0.04674,0 -0.0818,-0.01168 -0.175275,-0.03506 -0.245385,-0.186961 l -3.260125,-5.935999 -3.026425,3.026424 0.619306,2.266898 q 0.05843,0.198645 -0.09348,0.362236 l -1.121763,1.121764 q -0.105166,0.105165 -0.268757,0.105165 h -0.02337 q -0.175275,-0.02337 -0.280441,-0.151905 l -2.208471,-2.944629 -2.944629,-2.208473 q -0.128536,-0.08179 -0.151906,-0.268755 -0.01168,-0.151906 0.105166,-0.292127 l 1.121763,-1.133448 q 0.105165,-0.105165 0.268756,-0.105165 0.07011,0 0.09348,0.01168 l 2.266897,0.619306 3.026424,-3.026424 -5.935998,-3.260125 q -0.163591,-0.09348 -0.198646,-0.280441 -0.02337,-0.186961 0.105165,-0.315497 l 1.495685,-1.495684 q 0.163591,-0.151906 0.350552,-0.09348 l 7.77055,1.857921 1.869605,-1.869607 q 0.888063,-0.888063 2.009827,-1.261983 1.121763,-0.373921 1.729385,0.14022 z"
   style="fill:#ffffff;stroke-width:0.011685" /><g
   inkscape:groupmode="layer"
   id="layer1"
   inkscape:label="Text"
   style="display:inline"><text
     xml:space="preserve"
     style="font-style:normal;font-variant:normal;font-weight:800;font-stretch:normal;font-size:40px;line-height:1.25;font-family:'Open Sans';-inkscape-font-specification:'Open Sans Ultra-Bold';fill:#377dff;fill-opacity:1;stroke:none"
     x="48.366409"
     y="35.271378"
     id="text106"><tspan
       sodipodi:role="line"
       id="tspan104"
       x="48.366409"
       y="35.271378">MyLog</tspan></text></g></svg>
